<?xml version="1.0" encoding="utf-8"?>
<!-- Generator: Adobe Illustrator 18.0.0, SVG Export Plug-In . SVG Version: 6.00 Build 0)  -->
<!DOCTYPE svg PUBLIC "-//W3C//DTD SVG 1.1//EN" "http://www.w3.org/Graphics/SVG/1.1/DTD/svg11.dtd">
<svg version="1.1" xmlns="http://www.w3.org/2000/svg" xmlns:xlink="http://www.w3.org/1999/xlink" x="0px" y="0px"
	 viewBox="0 0 32 32" enable-background="new 0 0 32 32" xml:space="preserve">
<g id="Layer_2" display="none">
	<g display="inline">
		
			<image overflow="visible" opacity="0.3" width="44" height="44" xlink:href="C0C0F1BCF945EFBA.png"  transform="matrix(1 0 0 1 -5 -6)">
		</image>
		<g>
			<rect width="32" height="32"/>
		</g>
	</g>
</g>
<g id="Layer_1">
	<path fill="#FFFFFF" d="M24,6v2h-2V6h-1v2H11V6h-1v2H8V6H7v20h1v-2h2v2h1v-2h10v2h1v-2h2v2h1V6H24z M10,23L10,23H8v-2h2V23z M10,19
		v1H8v-2h2V19z M10,17L10,17H8v-2h2V17z M10,14H8v-2h2V14z M10,11H8V9h2V11z M13,20.5v-9l7,4.5L13,20.5z M24,23h-2v-2h2V23z M24,20
		h-2v-2h2V20z M24,17h-2v-2h2V17z M24,14h-2v-2h2V14z M24,11h-2V9h2V11z"/>
</g>
</svg>
