<?xml version="1.0" encoding="utf-8"?>
<!-- Generator: Adobe Illustrator 18.0.0, SVG Export Plug-In . SVG Version: 6.00 Build 0)  -->
<!DOCTYPE svg PUBLIC "-//W3C//DTD SVG 1.1//EN" "http://www.w3.org/Graphics/SVG/1.1/DTD/svg11.dtd">
<svg version="1.1" xmlns="http://www.w3.org/2000/svg" xmlns:xlink="http://www.w3.org/1999/xlink" x="0px" y="0px" width="32px"
	 height="32px" viewBox="0 0 32 32" enable-background="new 0 0 32 32" xml:space="preserve">
<g id="Layer_2" display="none">
	<g display="inline">
		
			<image overflow="visible" opacity="0.3" width="44" height="44" xlink:href="B78AAC3D5CD78C5D.png"  transform="matrix(1 0 0 1 -5 -6)">
		</image>
		<g>
			<rect width="32" height="32"/>
		</g>
	</g>
</g>
<g id="Layer_1">
	<path fill="#FFFFFF" d="M26,23.5l-5.1-5.1c0.7-1.1,1.1-2.5,1.1-3.9c0-4.1-3.4-7.5-7.5-7.5S7,10.4,7,14.5s3.4,7.5,7.5,7.5
		c1.4,0,2.8-0.4,3.9-1.1l5.1,5.1L26,23.5z M10,14.5c0-2.5,2-4.5,4.5-4.5s4.5,2,4.5,4.5c0,2.5-2,4.5-4.5,4.5S10,17,10,14.5z"/>
</g>
</svg>
